<?xml version="1.0" encoding="UTF-8"?>
<svg width="23px" height="23px" viewBox="0 0 23 23" version="1.1" xmlns="http://www.w3.org/2000/svg" xmlns:xlink="http://www.w3.org/1999/xlink">
    <!-- Generator: Sketch 58 (84663) - https://sketch.com -->
    <title>yu-3</title>
    <desc>Created with Sketch.</desc>
    <g id="页面-1" stroke="none" stroke-width="1" fill="none" fill-rule="evenodd">
        <g id="yu-3" fill-rule="nonzero">
            <path d="M21.6857799,10.3725054 C21.4425382,7.55132271 21.5857267,4.80486154 21.9029874,2.06640625 C21.963734,1.54202119 21.8287132,0.411413212 21.4767401,0.127649288 C20.9483975,-0.298441368 20.5994873,0.650700031 20.3067294,1.25870204 C19.633667,2.65706219 19.0542769,4.36854115 18.6384943,6.04399366 C18.3944869,7.02738243 18.1405251,8.01432936 17.8666548,8.984375 C17.725253,8.7908996 14.4245162,5.04236928 12.8805819,4.35875619 C10.4392312,3.27840733 7.79369007,2.98441368 5.36535645,4.30538366 C3.23820357,5.46178837 1.42575906,8.03656791 0.327980735,11.4017056 C-0.908136541,15.1907101 1.64526367,18.4735651 3.2915483,20.1116569 C5.41002308,22.2194268 8.38201349,23.3460319 10.7942671,22.6166074 C13.1518999,21.9049737 15.3494984,19.7006884 16.9881259,16.6882542 C17.4794589,15.7849242 17.8998358,14.7908609 18.2758012,13.7438699 C19.0343683,15.2676555 19.7339755,16.9230933 20.589533,18.207592 C20.9966375,18.8187075 21.4910334,20.1161046 22.0668501,20.2410852 C23.2986284,20.5079479 22.7958097,17.9518487 22.613825,16.8937384 C22.2429643,14.7454943 21.8774636,12.5968054 21.6857799,10.3725054 L21.6857799,10.3725054 Z" id="路径" fill="#FFFFFF"></path>
            <path d="M5.30894886,9.51810025 L5.173928,9.51810025 C4.51030939,9.51810025 3.958485,10.4814743 3.958485,11.6360999 C3.958485,12.7907256 4.51133034,13.7540996 5.173928,13.7540996 L5.30894886,13.7540996 C5.97256747,13.7540996 6.52439187,12.7907256 6.52439187,11.6360999 C6.52439187,10.4814743 5.97256747,9.51810025 5.30894886,9.51810025 Z" id="路径" fill="#4A90E2"></path>
        </g>
    </g>
</svg>